<svg xmlns="http://www.w3.org/2000/svg" xmlns:xlink="http://www.w3.org/1999/xlink"><symbol id="icon-close" viewBox="0 0 20 20"><path d="M.293 18.291a1 1 0 101.414 1.414L10 11.413l8.292 8.292a1 1 0 101.414-1.414l-8.292-8.292 8.292-8.292A1 1 0 1018.291.293L9.999 8.585 1.707.293A1 1 0 10.293 1.707L8.585 10 .293 18.291z"/></symbol><symbol id="icon-fb" viewBox="0 0 12 9">
<path d="M4.55859 5.23242H1.67578V9H0.603516V0.46875H5.04492V1.39453H1.67578V4.3125H4.55859V5.23242ZM6.36914 9V0.46875H8.80078C9.57812 0.46875 10.1621 0.658203 10.5527 1.03711C10.9473 1.41602 11.1445 1.98438 11.1445 2.74219C11.1445 3.14062 11.0449 3.49219 10.8457 3.79688C10.6465 4.10156 10.377 4.33789 10.0371 4.50586C10.4277 4.62305 10.7363 4.86328 10.9629 5.22656C11.1934 5.58984 11.3086 6.02734 11.3086 6.53906C11.3086 7.30469 11.0977 7.90625 10.6758 8.34375C10.2578 8.78125 9.66016 9 8.88281 9H6.36914ZM7.44141 5.00977V8.08008H8.90625C9.3125 8.08008 9.63477 7.94727 9.87305 7.68164C10.1113 7.41211 10.2305 7.03516 10.2305 6.55078C10.2305 5.52344 9.79688 5.00977 8.92969 5.00977H7.44141ZM7.44141 4.10742H8.81836C9.18945 4.10742 9.48828 3.98242 9.71484 3.73242C9.94531 3.48242 10.0605 3.15039 10.0605 2.73633C10.0605 2.26758 9.95703 1.92773 9.75 1.7168C9.54297 1.50195 9.22656 1.39453 8.80078 1.39453H7.44141V4.10742Z" fill="currentColor"/>
</symbol><symbol id="icon-ig" viewBox="0 0 10 10">
<path d="M1.94922 9H0.876953V0.46875H1.94922V9ZM9.16797 7.93945L8.98047 8.17383C8.44141 8.80273 7.65234 9.11719 6.61328 9.11719C5.69141 9.11719 4.9668 8.8125 4.43945 8.20312C3.91602 7.58984 3.64844 6.72461 3.63672 5.60742V3.93164C3.63672 2.73633 3.875 1.8418 4.35156 1.24805C4.83203 0.650391 5.54883 0.351562 6.50195 0.351562C7.31445 0.351562 7.94922 0.578125 8.40625 1.03125C8.86719 1.48437 9.12109 2.13086 9.16797 2.9707H8.0957C8.05273 2.43945 7.9043 2.02539 7.65039 1.72852C7.40039 1.42773 7.01953 1.27734 6.50781 1.27734C5.89453 1.27734 5.44531 1.47852 5.16016 1.88086C4.875 2.2793 4.72656 2.91797 4.71484 3.79688V5.53711C4.71484 6.39648 4.87891 7.05664 5.20703 7.51758C5.53516 7.97461 6.00586 8.20312 6.61914 8.20312C7.19727 8.20312 7.63672 8.0625 7.9375 7.78125L8.0957 7.63477V5.66602H6.53711V4.75195H9.16797V7.93945Z" fill="currentColor"/>
</symbol><symbol id="icon-vk" viewBox="0 0 14 9">
<path d="M4.0918 7.35352L6.04297 0.46875H7.2207L4.56641 9H3.62891L0.980469 0.46875H2.15234L4.0918 7.35352ZM10.291 5.06836L9.45312 6.08203V9H8.38086V0.46875H9.45312V4.58789L10.1562 3.65625L12.4531 0.46875H13.7422L10.9707 4.22461L13.959 9H12.6758L10.291 5.06836Z" fill="currentColor"/>
</symbol></svg>